<?xml version="1.0" encoding="UTF-8" standalone="no"?>
<svg
   height="48"
   width="48"
   version="1.1"
   id="svg12"
   xmlns="http://www.w3.org/2000/svg">
  <path
     id="path10"
     d="m 23.705078,3.9433594 c -2.83333,0 -5.493232,0.5067718 -7.976562,1.5234375 -2.483331,1.0166656 -4.650002,2.4265643 -6.5000004,4.2265625 -1.8499981,1.7999976 -3.3083344,3.9162786 -4.375,6.3496096 -1.0666656,2.433331 -1.5996094,5.06706 -1.5996094,7.90039 1e-7,2.733331 0.526173,5.316669 1.5761719,7.75 1.049999,2.433331 2.4821633,4.558336 4.2988281,6.375 1.8166658,1.816665 3.9416688,3.24883 6.3749998,4.298829 2.433331,1.049998 5.01667,1.576171 7.75,1.576171 1.266666,0 2.251173,-0.342058 2.951172,-1.02539 0.699999,-0.683333 1.048828,-1.659116 1.048828,-2.925781 0,-0.833333 -0.241276,-1.565887 -0.724609,-2.199219 -0.483333,-0.633333 -0.724609,-1.400782 -0.724609,-2.300781 -10e-7,-0.566667 0.217057,-1.082162 0.65039,-1.548829 0.433333,-0.466666 0.948829,-0.701171 1.548828,-0.701171 h 0.13086 c 0.316561,-1.079081 0.819598,-2.094408 1.486328,-3 h -1.517578 c -1.533332,0 -2.79883,0.583334 -3.798828,1.75 -0.999999,1.166665 -1.5,2.517449 -1.5,4.050781 0,1.366665 0.241276,2.250391 0.724609,2.65039 0.483333,0.4 0.724609,0.832162 0.724609,1.298829 0,0.333332 -0.07461,0.574609 -0.224609,0.724609 -0.15,0.15 -0.408724,0.226562 -0.775391,0.226562 -4.699995,0 -8.708727,-1.659899 -12.02539,-4.976562 -3.3166642,-3.316663 -4.9746098,-7.323442 -4.9746098,-12.023438 0,-4.766662 1.6928415,-8.792841 5.0761718,-12.076171 3.38333,-3.2833304 7.508338,-4.9238286 12.375,-4.9238286 4.366662,0 8.215498,1.340107 11.548828,4.0234376 3.33333,2.683331 5,6.225004 5,10.625 0,1.925931 -0.379881,3.53294 -1.121094,4.835937 1.012115,0.185249 1.98802,0.531431 2.890626,1.025391 0.820311,-1.65755 1.230468,-3.61133 1.230468,-5.861328 0,-2.566664 -0.52422,-4.924221 -1.574218,-7.074219 -1.049999,-2.149998 -2.466669,-4.007554 -4.25,-5.5742186 -1.783332,-1.5666651 -3.857946,-2.7924488 -6.22461,-3.6757813 -2.366664,-0.8833324 -4.866669,-1.3242187 -7.5,-1.3242187 z"
      />
  <path
     d="m 37.505375,44.210037 c -2.282758,0 -4.228955,-0.812135 -5.838591,-2.436405 -1.609637,-1.62427 -2.414456,-3.548518 -2.414456,-5.772743 0,-2.282758 0.804819,-4.236271 2.414456,-5.860541 1.609636,-1.624271 3.555833,-2.436405 5.838591,-2.436405 2.253492,0 4.192372,0.812135 5.816642,2.436405 1.62427,1.62427 2.436405,3.577783 2.436405,5.860541 0,2.224225 -0.812135,4.148473 -2.436405,5.772743 -1.62427,1.62427 -3.56315,2.436405 -5.816642,2.436405 z m -0.658488,-2.633951 h 1.448673 v -4.828911 h 4.828911 V 35.298501 H 38.29556 v -4.828909 h -1.448673 v 4.828909 h -4.82891 v 1.448673 h 4.82891 z"
     id="path322"
     style="stroke-width:0.877984" />
  <circle
     style="fill:none;stroke:#000000;stroke-width:1.205;stroke-dasharray:none;stroke-opacity:1"
     id="path560"
     cx="11.603516"
     cy="22.65624"
     r="2.585947" />
  <circle
     style="fill:none;stroke:#000000;stroke-width:1.205;stroke-dasharray:none;stroke-opacity:1"
     id="path560-5"
     cx="17.81835"
     cy="14.242188"
     r="2.585947" />
  <circle
     style="fill:none;stroke:#000000;stroke-width:1.205;stroke-dasharray:none;stroke-opacity:1"
     id="path560-5-5"
     cx="28.603516"
     cy="14.156241"
     r="2.585947" />
  <circle
     style="fill:none;stroke:#000000;stroke-width:1.205;stroke-dasharray:none;stroke-opacity:1"
     id="path560-5-5-4"
     cx="35.154297"
     cy="22.65624"
     r="2.585947" />
</svg>
