<?xml version="1.0" encoding="UTF-8" standalone="no"?>
<svg
   height="48"
   width="48"
   version="1.1"
   id="svg10401"
   xmlns="http://www.w3.org/2000/svg">
  <defs
     id="defs10405" />
  <path
     d="M 42,13.85 V 39 c 0,0.8 -0.3,1.5 -0.9,2.1 C 40.5,41.7 39.8,42 39,42 H 9 C 8.2,42 7.5,41.7 6.9,41.1 6.3,40.5 6,39.8 6,39 V 9 C 6,8.2 6.3,7.5 6.9,6.9 7.5,6.3 8.2,6 9,6 H 34.15 Z M 39,15.2 32.8,9 H 9 v 30 h 30 z m -30,0 V 39 9 Z"
     id="path10399"/>
  <circle
     style="fill:none;stroke:#000000;stroke-width:1.798;stroke-dasharray:none;stroke-opacity:1"
     id="path560"
     cx="24.053194"
     cy="30.549999"
     r="5.1468067" />
  <rect
     style="fill:none;stroke:#000000;stroke-width:1.67221;stroke-dasharray:none"
     id="rect11645"
     width="15.709401"
     height="7.0469356"
     x="12.745298"
     y="11.701531"
     ry="1.2434627" />
</svg>
